<?xml version="1.0" standalone="no"?>
<!DOCTYPE svg PUBLIC "-//W3C//DTD SVG 20010904//EN"
 "http://www.w3.org/TR/2001/REC-SVG-20010904/DTD/svg10.dtd">
<svg version="1.0" xmlns="http://www.w3.org/2000/svg"
 width="250.000000pt" height="250.000000pt" viewBox="0 0 250.000000 250.000000"
 preserveAspectRatio="xMidYMid meet">
<metadata>
Created by potrace 1.14, written by Peter Selinger 2001-2017
</metadata>
<g transform="translate(0.000000,250.000000) scale(0.100000,-0.100000)"
fill="#000000" stroke="none">
<path d="M640 2089 c-101 -40 -209 -252 -212 -416 -2 -79 10 -103 48 -103 20
0 546 259 566 279 12 11 -30 81 -75 129 -60 62 -184 122 -251 121 -28 0 -62
-5 -76 -10z"/>
<path d="M1731 2059 c-73 -14 -133 -50 -208 -124 -40 -39 -73 -75 -73 -80 0
-19 16 -32 95 -75 44 -23 154 -89 245 -145 91 -56 180 -110 199 -120 33 -17
35 -17 47 0 41 55 44 259 5 356 -54 139 -179 215 -310 188z"/>
<path d="M975 1496 c-119 -56 -300 -219 -344 -308 -53 -111 -49 -241 9 -300
54 -53 96 -32 240 118 221 230 323 392 290 455 -17 30 -70 59 -110 59 -19 0
-57 -11 -85 -24z m38 -160 c11 -29 -46 -82 -77 -70 -24 9 -19 30 15 58 34 29
54 33 62 12z"/>
<path d="M1404 1505 c-72 -30 -83 -98 -31 -198 50 -94 133 -202 225 -289 133
-126 228 -159 276 -95 17 23 21 43 21 106 0 67 -4 85 -33 141 -105 207 -346
383 -458 335z m89 -173 c22 -27 27 -49 13 -68 -13 -17 -16 -16 -45 13 -28 29
-39 61 -25 75 9 9 42 -3 57 -20z"/>
<path d="M1186 1050 c-34 -7 -66 -35 -66 -59 0 -10 12 -36 26 -57 89 -133 149
-127 214 20 20 43 20 49 6 71 -13 20 -25 24 -85 27 -38 2 -80 1 -95 -2z"/>
<path d="M1891 812 c-16 -31 -151 -361 -151 -370 0 -4 16 -16 35 -25 l36 -17
14 32 c7 18 43 105 79 192 37 88 65 165 62 172 -2 6 -18 16 -35 22 -26 9 -32
8 -40 -6z"/>
<path d="M1262 718 c-17 -17 -17 -509 0 -526 9 -9 90 -12 305 -12 281 0 293 1
303 20 6 12 9 77 8 167 l-3 148 -25 -63 c-18 -46 -39 -77 -75 -110 l-50 -47
-3 47 -3 48 -172 3 -172 3 171 2 172 2 4 33 c3 17 8 40 13 50 7 16 -5 17 -169
17 -116 0 -176 4 -176 10 0 7 60 10 180 8 99 -2 180 -2 180 -1 0 0 20 49 44
107 l45 106 -283 0 c-206 0 -285 -3 -294 -12z m391 -95 c-51 -2 -135 -2 -185
0 -51 1 -10 3 92 3 102 0 143 -2 93 -3z m-18 -343 c-8 -13 -242 -13 -250 0 -4
6 40 10 125 10 85 0 129 -4 125 -10z"/>
<path d="M1730 375 c0 -19 2 -35 5 -35 3 0 19 10 36 22 l29 22 -22 13 c-38 20
-48 16 -48 -22z"/>
</g>
</svg>
